# xmcd CD database file
#
# Track frame offsets:
#	150
#	27650
#	47687
#
# Disc length: 1003 seconds
#
# Revision: 1
# Processed by: cddbd v1.5.2PL0 Copyright (c) Steve Scherf et al.
# Submitted via: jetAudio 5
#
DISCID=2103e903
DTITLE=DJ Krush - Big City Lovers
DYEAR=1995
DGENRE=Hip-Hop
TTITLE0=Big City Lovers (Remix)
TTITLE1=Edge Of Blue (Remix)
TTITLE2=Big City Lovers (Remix Instrumental)
EXTD=
EXTT0=
EXTT1=
EXTT2=
PLAYORDER=
